<?xml version="1.0" encoding="UTF-8"?>
<!DOCTYPE svg PUBLIC "-//W3C//DTD SVG 1.1//EN" "http://www.w3.org/Graphics/SVG/1.1/DTD/svg11.dtd">
<!-- Creator: CorelDRAW -->
<svg xmlns="http://www.w3.org/2000/svg" xml:space="preserve" width="85.2995mm" height="38.9952mm" style="shape-rendering:geometricPrecision; text-rendering:geometricPrecision; image-rendering:optimizeQuality; fill-rule:evenodd; clip-rule:evenodd"
viewBox="0 0 85.8641 39.2533"
 xmlns:xlink="http://www.w3.org/1999/xlink">
 <defs>
  <style type="text/css">
   <![CDATA[
    .str0 {stroke:#075092;stroke-width:0.50331}
    .fil2 {fill:none}
    .fil1 {fill:#075092}
    .fil3 {fill:#075092;fill-rule:nonzero}
    .fil0 {fill:#5B5B5B;fill-rule:nonzero}
    .fil4 {fill:#D5202A;fill-rule:nonzero}
   ]]>
  </style>
 </defs>
 <g id="Layer_x0020_1">
  <metadata id="CorelCorpID_0Corel-Layer"/>
  <g id="_307760952">
   <g>
    <path id="_307260928" class="fil0" d="M18.0451 36.9256l0.101971 0.625211c-0.198505,0.0415734 -0.376979,0.0630144 -0.533911,0.0630144 -0.257594,0 -0.4562,-0.0401641 -0.598435,-0.122002 -0.140826,-0.0805295 -0.240079,-0.187835 -0.297758,-0.320709 -0.0576793,-0.131464 -0.0872739,-0.410499 -0.0872739,-0.834487l0 -2.40139 -0.519214 0 0 -0.550117 0.519214 0 0 -1.0344 0.704331 -0.423887 0 1.45829 0.711076 0 0 0.550117 -0.711076 0 0 2.44035c0,0.202532 0.0120794,0.331379 0.0362383,0.389058 0.0254675,0.0576793 0.0657322,0.103279 0.122103,0.138209 0.0563707,0.0335204 0.1369,0.0509349 0.241488,0.0509349 0.0791203,0 0.1825,-0.00936156 0.311247,-0.0281853z"/>
    <path id="_307262056" class="fil0" d="M19.6955 35.4713c0,-0.772782 0.214712,-1.34565 0.645344,-1.71729 0.358155,-0.308529 0.795531,-0.464152 1.31213,-0.464152 0.574176,0 1.04376,0.187835 1.40725,0.564814 0.365,0.37567 0.546091,0.894884 0.546091,1.55754 0,0.538038 -0.0805295,0.960617 -0.241488,1.26784 -0.160958,0.308629 -0.395803,0.5474 -0.703023,0.71782 -0.308529,0.17032 -0.643934,0.254876 -1.00883,0.254876 -0.583638,0 -1.05584,-0.186527 -1.41682,-0.562096 -0.360873,-0.374362 -0.540655,-0.913708 -0.540655,-1.61935zm0.727182 0c0,0.53532 0.116667,0.935049 0.350102,1.2007 0.233536,0.267056 0.527267,0.399829 0.880188,0.399829 0.351411,0 0.643934,-0.134182 0.877369,-0.401138 0.232126,-0.266955 0.348794,-0.674837 0.348794,-1.22224 0,-0.516496 -0.116667,-0.908272 -0.351511,-1.17392 -0.234744,-0.265546 -0.525858,-0.39842 -0.874651,-0.39842 -0.352921,0 -0.646652,0.132874 -0.880188,0.397111 -0.233435,0.264338 -0.350102,0.664067 -0.350102,1.19808z"/>
    <path id="_307459896" class="fil0" d="M27.7656 37.9051l0.688226 0.10187c0.0281853,0.211994 0.108715,0.366309 0.238871,0.464253 0.175756,0.130156 0.415834,0.195888 0.719028,0.195888 0.328762,0 0.58092,-0.0657322 0.759394,-0.195888 0.178373,-0.131464 0.297859,-0.315273 0.360873,-0.550017 0.0375469,-0.144953 0.0536528,-0.446838 0.0509349,-0.908272 -0.308529,0.36349 -0.693561,0.54599 -1.1551,0.54599 -0.574176,0 -1.0183,-0.206558 -1.33216,-0.621185 -0.313965,-0.413217 -0.472306,-0.91089 -0.472306,-1.48919 0,-0.39842 0.0724766,-0.766037 0.21602,-1.10275 0.144852,-0.336714 0.354229,-0.597026 0.627828,-0.780834 0.2737,-0.1825 0.595717,-0.275008 0.964643,-0.275008 0.492438,0 0.898911,0.199915 1.21821,0.598334l0 -0.503108 0.653397 0 0 3.60762c0,0.649269 -0.0671415,1.1108 -0.198606,1.38179 -0.132773,0.271083 -0.34215,0.485694 -0.629238,0.642626 -0.287088,0.157033 -0.639908,0.236153 -1.05987,0.236153 -0.497673,0 -0.90022,-0.112641 -1.20603,-0.336714 -0.307321,-0.224073 -0.454891,-0.560788 -0.44412,-1.01155zm0.584946 -2.50749c0,0.5474 0.108715,0.947128 0.327353,1.19808 0.217329,0.252158 0.48972,0.376979 0.817073,0.376979 0.324635,0 0.596925,-0.124821 0.816972,-0.374362 0.220047,-0.250849 0.33007,-0.642626 0.33007,-1.17795 0,-0.511061 -0.112741,-0.896193 -0.339432,-1.1551 -0.226691,-0.258902 -0.50039,-0.389058 -0.81969,-0.389058 -0.313965,0 -0.58092,0.127438 -0.802275,0.383723 -0.220047,0.254876 -0.33007,0.634573 -0.33007,1.13768z"/>
    <path id="_307460736" class="fil0" d="M33.3309 35.4713c0,-0.772782 0.214712,-1.34565 0.645344,-1.71729 0.358155,-0.308529 0.795531,-0.464152 1.31213,-0.464152 0.574176,0 1.04376,0.187835 1.40725,0.564814 0.365,0.37567 0.546091,0.894884 0.546091,1.55754 0,0.538038 -0.0805295,0.960617 -0.241488,1.26784 -0.160958,0.308629 -0.395803,0.5474 -0.703023,0.71782 -0.308529,0.17032 -0.643934,0.254876 -1.00883,0.254876 -0.583638,0 -1.05584,-0.186527 -1.41682,-0.562096 -0.360873,-0.374362 -0.540655,-0.913708 -0.540655,-1.61935zm0.727182 0c0,0.53532 0.116667,0.935049 0.350102,1.2007 0.233536,0.267056 0.527267,0.399829 0.880188,0.399829 0.351411,0 0.643934,-0.134182 0.877369,-0.401138 0.232126,-0.266955 0.348794,-0.674837 0.348794,-1.22224 0,-0.516496 -0.116667,-0.908272 -0.351511,-1.17392 -0.234744,-0.265546 -0.525858,-0.39842 -0.874651,-0.39842 -0.352921,0 -0.646652,0.132874 -0.880188,0.397111 -0.233435,0.264338 -0.350102,0.664067 -0.350102,1.19808z"/>
    <path id="_307461528" class="fil0" d="M41.5311 39.1581l0 -5.77296 0.643934 0 0 0.542064c0.151597,-0.211994 0.323326,-0.371644 0.515188,-0.477641 0.190553,-0.105997 0.422579,-0.15965 0.69497,-0.15965 0.356846,0 0.670811,0.0925083 0.943102,0.275008 0.2737,0.183809 0.478949,0.442711 0.617158,0.776808 0.139517,0.333996 0.209276,0.700305 0.209276,1.09872 0,0.426706 -0.0764024,0.811738 -0.230717,1.15379 -0.152905,0.34215 -0.37567,0.60377 -0.668093,0.78617 -0.292524,0.181191 -0.599744,0.272391 -0.921761,0.272391 -0.236052,0 -0.446738,-0.0496263 -0.634573,-0.148879 -0.187835,-0.0993533 -0.340741,-0.225483 -0.461434,-0.37708l0 2.03126 -0.707049 0zm0.639908 -3.66258c0,0.536629 0.108715,0.93374 0.326044,1.19133 0.217329,0.256285 0.481667,0.385032 0.790196,0.385032 0.313965,0 0.583638,-0.132773 0.807611,-0.399829 0.224073,-0.265647 0.336815,-0.677455 0.336815,-1.23563 0,-0.532602 -0.110023,-0.929713 -0.328762,-1.19536 -0.218638,-0.264238 -0.480258,-0.397111 -0.783452,-0.397111 -0.301885,0 -0.56884,0.140927 -0.800967,0.422579 -0.232126,0.281753 -0.347485,0.692353 -0.347485,1.22898z"/>
    <polygon id="_307462344" class="fil0" points="47.2144,37.5589 47.2144,31.7967 47.9214,31.7967 47.9214,37.5589 "/>
    <path id="_307463160" class="fil0" d="M52.9648 37.0437c-0.262929,0.222765 -0.515188,0.379697 -0.756676,0.472306 -0.242797,0.0911997 -0.503108,0.1368 -0.780734,0.1368 -0.458817,0 -0.810328,-0.111332 -1.05725,-0.335406 -0.245514,-0.224073 -0.368926,-0.511161 -0.368926,-0.858646 0,-0.20525 0.0455998,-0.391776 0.139517,-0.560788 0.092609,-0.169011 0.214712,-0.304502 0.364899,-0.406473 0.151597,-0.101971 0.320709,-0.179782 0.509853,-0.232126 0.138209,-0.0362383 0.347485,-0.0724766 0.627828,-0.105997 0.571558,-0.0684501 0.992828,-0.148879 1.2625,-0.244105 0.00271787,-0.0966354 0.00402648,-0.158341 0.00402648,-0.183809 0,-0.288497 -0.0671415,-0.492438 -0.201223,-0.609105 -0.179782,-0.161059 -0.449455,-0.240179 -0.804993,-0.240179 -0.332688,0 -0.578202,0.0576793 -0.737852,0.174447 -0.158341,0.116667 -0.275109,0.323326 -0.351511,0.619775l-0.690943 -0.0952262c0.0630144,-0.295141 0.166394,-0.53532 0.309938,-0.716411 0.143544,-0.1825 0.35282,-0.323326 0.625111,-0.42127 0.272391,-0.097944 0.587664,-0.14757 0.947229,-0.14757 0.356846,0 0.645344,0.042882 0.868008,0.126129 0.222664,0.0844553 0.38634,0.189144 0.492337,0.316582 0.104688,0.127438 0.177165,0.287088 0.220047,0.481667 0.0228503,0.120694 0.0349297,0.338023 0.0349297,0.651987l0 0.943202c0,0.658631 0.0146966,1.07457 0.0455998,1.2476 0.0294939,0.174447 0.0898911,0.34215 0.178373,0.5018l-0.73916 0c-0.0724766,-0.146262 -0.120794,-0.317991 -0.140927,-0.515188zm-0.0589879 -1.58039c-0.257594,0.105997 -0.642626,0.194479 -1.1551,0.268264 -0.291215,0.041674 -0.497773,0.0885825 -0.617158,0.140927 -0.120794,0.0523442 -0.214712,0.128747 -0.279035,0.230717 -0.0657322,0.100662 -0.0993533,0.211994 -0.0993533,0.335406 0,0.189144 0.0724766,0.346176 0.214712,0.472306 0.142235,0.12472 0.351511,0.187835 0.62652,0.187835 0.27229,0 0.515188,-0.0590885 0.727182,-0.178474 0.211893,-0.119385 0.368926,-0.283061 0.468179,-0.48972 0.0765031,-0.15965 0.11405,-0.395702 0.11405,-0.706949l0 -0.260312z"/>
    <path id="_307463976" class="fil0" d="M58.6642 36.0294l0.69497 0.0913004c-0.0750938,0.478949 -0.269673,0.854519 -0.583537,1.1256 -0.312656,0.270982 -0.697688,0.406473 -1.15379,0.406473 -0.57025,0 -1.03038,-0.186527 -1.37655,-0.559479 -0.347485,-0.372952 -0.521831,-0.908272 -0.521831,-1.60586 0,-0.450764 0.0750938,-0.845258 0.223973,-1.18328 0.150288,-0.338123 0.37708,-0.591691 0.68289,-0.760702 0.304603,-0.169112 0.637291,-0.253567 0.995546,-0.253567 0.453381,0 0.825025,0.115359 1.11211,0.344767 0.288497,0.229409 0.473614,0.554043 0.555452,0.976723l-0.688226 0.105997c-0.0657322,-0.280444 -0.181091,-0.491029 -0.347485,-0.633264 -0.166394,-0.140927 -0.367617,-0.211994 -0.60377,-0.211994 -0.356846,0 -0.646652,0.127438 -0.869316,0.383723 -0.222664,0.254876 -0.334097,0.658732 -0.334097,1.21147 0,0.560788 0.107406,0.96867 0.323326,1.22355 0.214712,0.253567 0.495055,0.381005 0.841232,0.381005 0.277726,0 0.508443,-0.0858646 0.69497,-0.256285 0.186426,-0.17032 0.304502,-0.43194 0.354129,-0.78617z"/>
    <path id="_307464792" class="fil0" d="M64.0444 36.2146l0.731108 0.0897904c-0.115359,0.428014 -0.328661,0.759394 -0.639908,0.995546 -0.312555,0.234744 -0.711076,0.35282 -1.19536,0.35282 -0.610414,0 -1.0948,-0.187835 -1.45165,-0.563505 -0.358155,-0.37567 -0.536629,-0.902837 -0.536629,-1.5817 0,-0.703023 0.181091,-1.2477 0.542064,-1.63545 0.362182,-0.38775 0.83036,-0.582229 1.40725,-0.582229 0.55817,0 1.01427,0.190452 1.36719,0.570149 0.354129,0.379697 0.531193,0.915017 0.531193,1.60324 0,0.042882 -0.0013086,0.105997 -0.00402648,0.189144l-3.11247 0c0.0254675,0.458817 0.155623,0.810328 0.389058,1.05312 0.233435,0.244206 0.523241,0.366309 0.872034,0.366309 0.258902,0 0.480258,-0.0684501 0.664067,-0.20525 0.183809,-0.135491 0.328762,-0.35282 0.436067,-0.651987zm-2.32237 -1.14443l2.33042 0c-0.0309032,-0.350203 -0.120794,-0.61444 -0.266955,-0.788887 -0.225483,-0.27229 -0.517906,-0.409191 -0.876161,-0.409191 -0.324635,0 -0.598334,0.108715 -0.81969,0.326044 -0.221356,0.217329 -0.343458,0.508443 -0.367617,0.872034z"/>
    <path id="_307465608" class="fil0" d="M66.6046 36.3125l0.698896 -0.109923c0.0389562,0.280343 0.14898,0.495055 0.328762,0.645243 0.178373,0.14898 0.429323,0.224073 0.752649,0.224073 0.324635,0 0.566123,-0.0670408 0.723055,-0.198606 0.157033,-0.132773 0.236153,-0.288396 0.236153,-0.465461 0,-0.161059 -0.0697587,-0.285779 -0.209276,-0.378388 -0.0966354,-0.0630144 -0.338123,-0.142135 -0.723155,-0.23877 -0.517805,-0.131464 -0.878678,-0.244206 -1.07859,-0.340741 -0.199915,-0.0953268 -0.352921,-0.2281 -0.4562,-0.397111 -0.103279,-0.169112 -0.155623,-0.355538 -0.155623,-0.559479 0,-0.186527 0.0429826,-0.358256 0.128847,-0.516496 0.0844553,-0.15965 0.201223,-0.291114 0.347485,-0.395803 0.109923,-0.0805295 0.260211,-0.150288 0.449355,-0.206659 0.190553,-0.05627 0.394494,-0.0844553 0.611823,-0.0844553 0.327353,0 0.61444,0.0483177 0.862673,0.142235 0.248132,0.0939176 0.430632,0.221356 0.548708,0.382314 0.118076,0.162368 0.198505,0.376979 0.242797,0.646652l-0.690943 0.0952262c-0.0322118,-0.214611 -0.123412,-0.382314 -0.2737,-0.503108 -0.150188,-0.120694 -0.36349,-0.181091 -0.638599,-0.181091 -0.324635,0 -0.556761,0.0536528 -0.694869,0.160958 -0.139618,0.107406 -0.209377,0.233435 -0.209377,0.37708 0,0.0925083 0.0295946,0.174346 0.0872739,0.248132 0.0576793,0.0765031 0.14757,0.138209 0.270982,0.189144 0.0710673,0.0255681 0.279035,0.0858646 0.625211,0.179782 0.50039,0.134182 0.849184,0.242897 1.04638,0.328762 0.198606,0.0844553 0.354229,0.209276 0.46687,0.371644 0.112741,0.162267 0.169112,0.36349 0.169112,0.604978 0,0.236153 -0.0697587,0.457508 -0.206659,0.666785 -0.138108,0.207968 -0.336714,0.368926 -0.595617,0.482976 -0.259003,0.11405 -0.552735,0.170421 -0.880087,0.170421 -0.543373,0 -0.95659,-0.112741 -1.24106,-0.338123 -0.28437,-0.225382 -0.465461,-0.559378 -0.543272,-1.00219z"/>
    <path id="_307466424" class="fil0" d="M72.5119 36.1288l-0.21602 -3.05489 0 -1.2772 0.876061 0 0 1.2772 -0.203941 3.05489 -0.456099 0zm-0.185117 1.4301l0 -0.806302 0.814355 0 0 0.806302 -0.814355 0z"/>
   </g>
   <g>
    <g>
     <polygon id="_307790512" class="fil1" points="27.8705,22.5452 41.7126,22.5452 41.7126,23.0643 27.8705,23.0643 "/>
     <polygon id="_231941072" class="fil1" points="35.0509,15.8838 35.0509,29.7259 34.5321,29.7259 34.5321,15.8838 "/>
     <path id="_231939368" class="fil2 str0" d="M34.7916 15.8803c3.82374,0 6.92353,3.09978 6.92353,6.92353 0,3.82374 -3.09978,6.92353 -6.92353,6.92353 -3.82374,0 -6.92353,-3.09978 -6.92353,-6.92353 0,-3.82374 3.09978,-6.92353 6.92353,-6.92353z"/>
     <path id="_231941552" class="fil2 str0" d="M34.7916 15.8803c2.65607,0 4.80912,3.09978 4.80912,6.92353 0,3.82374 -2.15306,6.92353 -4.80912,6.92353 -2.65607,0 -4.80912,-3.09978 -4.80912,-6.92353 0,-3.82374 2.15306,-6.92353 4.80912,-6.92353z"/>
     <path id="_231941792" class="fil2 str0" d="M34.7916 15.8803c1.22495,0 2.21809,3.09978 2.21809,6.92353 0,3.82374 -0.99313,6.92353 -2.21809,6.92353 -1.22495,0 -2.21809,-3.09978 -2.21809,-6.92353 0,-3.82374 0.99313,-6.92353 2.21809,-6.92353z"/>
     <path id="_308556112" class="fil2 str0" d="M40.8099 19.3785c-1.23089,0.693359 -3.5287,1.12158 -6.01827,1.12158 -2.46441,0 -4.74299,-0.41976 -5.98314,-1.10195"/>
     <path id="_231940496" class="fil2 str0" d="M40.8099 26.014c-1.23089,-0.693359 -3.5287,-1.12158 -6.01827,-1.12158 -2.46441,0 -4.74299,0.41976 -5.98314,1.10195"/>
     <path id="_308206416" class="fil2 str0" d="M38.8512 28.3361c-0.829152,-0.693259 -2.37693,-1.12147 -4.05386,-1.12147 -1.66002,0 -3.19481,0.41966 -4.0301,1.10195"/>
     <path id="_231941336" class="fil2 str0" d="M38.8512 17.224c-0.829152,0.693259 -2.37693,1.12147 -4.05386,1.12147 -1.66002,0 -3.19481,-0.41966 -4.0301,-1.10195"/>
    </g>
    <path id="_232579616" class="fil3" d="M3.36976 20.4002l-3.02549 -0.546796c0.340237,-1.21902 0.923472,-2.11823 1.75373,-2.70549 0.834387,-0.583235 2.06558,-0.878879 3.70184,-0.878879 1.4905,0 2.59617,0.178272 3.32527,0.530589 0.724967,0.352317 1.23935,0.797846 1.53499,1.34062 0.295644,0.542668 0.44553,1.53499 0.44553,2.98493l-0.0364396 3.89219c0,1.10577 0.0526462,1.92385 0.161965,2.45041 0.105292,0.522435 0.307824,1.08946 0.599442,1.68891l-3.30091 0c-0.0850593,-0.222765 -0.194378,-0.550822 -0.320004,-0.984172 -0.0526462,-0.198505 -0.0931123,-0.328057 -0.117372,-0.392883 -0.571156,0.554848 -1.17865,0.967965 -1.82671,1.2474 -0.647961,0.275411 -1.34051,0.413117 -2.07766,0.413117 -1.29612,0 -2.32076,-0.352317 -3.06596,-1.05302 -0.749327,-0.704734 -1.12198,-1.59569 -1.12198,-2.67308 0,-0.708761 0.170119,-1.34464 0.510356,-1.90362 0.340237,-0.558875 0.81818,-0.984172 1.4297,-1.27982 0.611622,-0.295644 1.49855,-0.554848 2.65284,-0.777613 1.55533,-0.291618 2.63664,-0.567029 3.23608,-0.81818l0 -0.332084c0,-0.643934 -0.157939,-1.09762 -0.473816,-1.37303 -0.315978,-0.271385 -0.911292,-0.40909 -1.79017,-0.40909 -0.595415,0 -1.05715,0.117472 -1.38924,0.352417 -0.332084,0.230818 -0.599442,0.639908 -0.806,1.22717zm4.45922 2.70549c-0.425196,0.141833 -1.10164,0.311951 -2.02914,0.510356 -0.923372,0.198505 -1.52684,0.392883 -1.81443,0.579209 -0.43335,0.311851 -0.652088,0.700607 -0.652088,1.17452 0,0.469789 0.174145,0.870826 0.522435,1.21096 0.348391,0.340237 0.789793,0.510356 1.32854,0.510356 0.603468,0 1.17452,-0.198505 1.72132,-0.591288 0.404963,-0.299771 0.668194,-0.668294 0.79382,-1.10577 0.0890858,-0.283464 0.129552,-0.826233 0.129552,-1.62408l0 -0.664268z"/>
    <path id="_307255888" class="fil3" d="M15.6907 29.1568l-5.0789 -12.6001 3.49931 0 2.37341 6.43159 0.668496 2.0841c2.25171,-5.4297 4.69316,-9.00401 7.83411,-11.8051 4.44292,-3.96236 10.4638,-6.24476 20.8663,-8.89026 -18.0474,8.42268 -21.8313,10.26 -27.1616,24.7797l-3.00124 0 0.000100662 0z"/>
    <polygon id="_307256224" class="fil3" points="24.0864,29.1568 24.0864,16.5567 27.4197,16.5567 27.4197,29.1568 "/>
    <path id="_307257904" class="fil3" d="M53.8304 29.1567l-3.33322 0 0 -6.43169c0,-1.36085 -0.0728792,-2.23973 -0.214712,-2.64066 -0.141732,-0.39691 -0.376677,-0.708761 -0.69658,-0.931525 -0.320004,-0.218738 -0.704734,-0.332184 -1.15429,-0.332184 -0.579209,0 -1.09762,0.158039 -1.55533,0.473916 -0.457609,0.320004 -0.773587,0.737147 -0.943605,1.25958 -0.170119,0.522536 -0.255178,1.48647 -0.255178,2.89584l0 5.70673 -3.33332 0 0 -12.6001 3.09435 0 0 1.85087c1.10164,-1.42557 2.48675,-2.13846 4.15542,-2.13846 0.733121,0 1.40947,0.133679 2.01696,0.39691 0.607595,0.267358 1.06933,0.603468 1.38118,1.01658 0.311851,0.413117 0.530589,0.878879 0.652088,1.40142 0.125525,0.522435 0.186225,1.26764 0.186225,2.23973l0 7.83301z"/>
    <path id="_307258720" class="fil4" d="M62.6484 25.1471l3.32517 0.554848c-0.429222,1.21912 -1.10164,2.14662 -2.02502,2.7825 -0.919446,0.639908 -2.07374,0.955785 -3.45884,0.955785 -2.19111,0 -3.81126,-0.712787 -4.86429,-2.14651 -0.830259,-1.14624 -1.2474,-2.59617 -1.2474,-4.34185 0,-2.08984 0.546695,-3.7261 1.64029,-4.90878 1.08946,-1.18258 2.47065,-1.77396 4.13932,-1.77396 1.87513,0 3.35345,0.619675 4.43889,1.85902 1.08141,1.23935 1.59982,3.13481 1.55533,5.69052l-8.35554 0c0.0243602,0.988198 0.291618,1.75776 0.806,2.30455 0.514382,0.550822 1.15832,0.826233 1.92385,0.826233 0.522435,0 0.959912,-0.141732 1.31626,-0.425297 0.356444,-0.287591 0.627828,-0.7452 0.806,-1.37706zm0.190352 -3.36976c-0.0242595,-0.967965 -0.271284,-1.70109 -0.7452,-2.20329 -0.473916,-0.502202 -1.05302,-0.753354 -1.7335,-0.753354 -0.728994,0 -1.32844,0.267358 -1.80225,0.797947 -0.473916,0.526462 -0.708861,1.2474 -0.700708,2.15869l4.98166 0z"/>
    <path id="_307259560" class="fil4" d="M70.0608 29.1567l-3.33332 0 0 -12.6001 3.09435 0 0 1.79017c0.530589,-0.846466 1.00853,-1.40544 1.4297,-1.6727 0.425297,-0.267358 0.903239,-0.405064 1.44188,-0.405064 0.761407,0 1.4904,0.210585 2.19513,0.631855l-1.03279 2.904c-0.558875,-0.36047 -1.08131,-0.542769 -1.56328,-0.542769 -0.46989,0 -0.862773,0.125525 -1.1867,0.38473 -0.328057,0.255178 -0.579209,0.720941 -0.765534,1.39326 -0.186325,0.672321 -0.279437,2.08179 -0.279437,4.22438l0 3.89219z"/>
    <path id="_307260376" class="fil4" d="M77.4033 20.4002l-3.02549 -0.546796c0.340237,-1.21902 0.923472,-2.11823 1.75373,-2.70549 0.834387,-0.583235 2.06558,-0.878879 3.70184,-0.878879 1.4905,0 2.59617,0.178272 3.32527,0.530589 0.724967,0.352317 1.23935,0.797846 1.53499,1.34062 0.295644,0.542668 0.44553,1.53499 0.44553,2.98493l-0.0364396 3.89219c0,1.10577 0.0526462,1.92385 0.161965,2.45041 0.105292,0.522435 0.307824,1.08946 0.599442,1.68891l-3.30091 0c-0.0850593,-0.222765 -0.194378,-0.550822 -0.320004,-0.984172 -0.0526462,-0.198505 -0.0931123,-0.328057 -0.117372,-0.392883 -0.571156,0.554848 -1.17865,0.967965 -1.82671,1.2474 -0.647961,0.275411 -1.34051,0.413117 -2.07766,0.413117 -1.29612,0 -2.32076,-0.352317 -3.06596,-1.05302 -0.749327,-0.704734 -1.12198,-1.59569 -1.12198,-2.67308 0,-0.708761 0.170119,-1.34464 0.510356,-1.90362 0.340237,-0.558875 0.81818,-0.984172 1.4297,-1.27982 0.611622,-0.295644 1.49855,-0.554848 2.65284,-0.777613 1.55533,-0.291618 2.63664,-0.567029 3.23608,-0.81818l0 -0.332084c0,-0.643934 -0.157939,-1.09762 -0.473816,-1.37303 -0.315978,-0.271385 -0.911292,-0.40909 -1.79017,-0.40909 -0.595415,0 -1.05715,0.117472 -1.38924,0.352417 -0.332084,0.230818 -0.599442,0.639908 -0.806,1.22717zm4.45922 2.70549c-0.425196,0.141833 -1.10164,0.311951 -2.02914,0.510356 -0.923372,0.198505 -1.52684,0.392883 -1.81443,0.579209 -0.43335,0.311851 -0.652088,0.700607 -0.652088,1.17452 0,0.469789 0.174145,0.870826 0.522435,1.21096 0.348391,0.340237 0.789793,0.510356 1.32854,0.510356 0.603468,0 1.17452,-0.198505 1.72132,-0.591288 0.404963,-0.299771 0.668194,-0.668294 0.79382,-1.10577 0.0890858,-0.283464 0.129552,-0.826233 0.129552,-1.62408l0 -0.664268z"/>
    <path id="_307465848" class="fil1" d="M47.5788 0l3.52619 2.3726c0.864686,-0.227093 2.06649,-0.892871 2.79629,-0.580316 -0.347485,0.800665 -1.77437,0.859451 -2.62768,1.22163l-1.13657 4.29615 -0.321414 -3.78348 -2.13564 0.686011 -0.765333 1.67824 -0.000201324 -1.76954 -0.938773 -1.54264 1.45879 0.912299 2.15467 -0.566022 -2.01032 -2.92493z"/>
   </g>
  </g>
 </g>
</svg>
